{
	"asset":{
		"generator":"Khronos glTF Blender I/O v4.4.55",
		"version":"2.0"
	},
	"scene":0,
	"scenes":[
		{
			"name":"Scene",
			"nodes":[
				0
			]
		}
	],
	"nodes":[
		{
			"mesh":0,
			"name":"Cube.001",
			"translation":[
				0,
				0.5000000596046448,
				0
			]
		}
	],
	"materials":[
		{
			"doubleSided":true,
			"name":"Material.001",
			"pbrMetallicRoughness":{
				"baseColorFactor":[
					0.800054669380188,
					0.00450055580586195,
					0.0026399586349725723,
					1
				],
				"metallicFactor":0,
				"roughnessFactor":0.5
			}
		}
	],
	"meshes":[
		{
			"name":"Cube.002",
			"primitives":[
				{
					"attributes":{
						"POSITION":0,
						"NORMAL":1,
						"TEXCOORD_0":2
					},
					"indices":3,
					"material":0
				}
			]
		}
	],
	"accessors":[
		{
			"bufferView":0,
			"componentType":5126,
			"count":170,
			"max":[
				0.5,
				0.3943157196044922,
				0.19999998807907104
			],
			"min":[
				-0.6995617747306824,
				-0.19999998807907104,
				-0.19999998807907104
			],
			"type":"VEC3"
		},
		{
			"bufferView":1,
			"componentType":5126,
			"count":170,
			"type":"VEC3"
		},
		{
			"bufferView":2,
			"componentType":5126,
			"count":170,
			"type":"VEC2"
		},
		{
			"bufferView":3,
			"componentType":5123,
			"count":276,
			"type":"SCALAR"
		}
	],
	"bufferViews":[
		{
			"buffer":0,
			"byteLength":2040,
			"byteOffset":0,
			"target":34962
		},
		{
			"buffer":0,
			"byteLength":2040,
			"byteOffset":2040,
			"target":34962
		},
		{
			"buffer":0,
			"byteLength":1360,
			"byteOffset":4080,
			"target":34962
		},
		{
			"buffer":0,
			"byteLength":552,
			"byteOffset":5440,
			"target":34963
		}
	],
	"buffers":[
		{
			"byteLength":5992,
			"uri":"sub.bin"
		}
	]
}
